HIERARCHY
ROOT root
{
	OFFSET 0.000000 0.000000 0.000000
	CHANNELS 6 Xposition Yposition Zposition Zrotation Yrotation Xrotation
	JOINT lhip
	{
		OFFSET 0.058581 -0.082280 -0.017664
		CHANNELS 3 Zrotation Yrotation Xrotation
		JOINT lknee
		{
			OFFSET 0.043451 -0.386469 0.008037
			CHANNELS 3 Zrotation Yrotation Xrotation
			JOINT lankle
			{
				OFFSET -0.014790 -0.426874 -0.037428
				CHANNELS 3 Zrotation Yrotation Xrotation
				JOINT ltoe
				{
					OFFSET 0.041054 -0.060286 0.122042
					CHANNELS 3 Zrotation Yrotation Xrotation
					End Site
					{
						OFFSET 0.000000 0.000000 0.000000
					}
				}
			}
		}
	}
	JOINT rhip
	{
		OFFSET -0.060310 -0.090513 -0.013543
		CHANNELS 3 Zrotation Yrotation Xrotation
		JOINT rknee
		{
			OFFSET -0.043257 -0.383688 -0.004843
			CHANNELS 3 Zrotation Yrotation Xrotation
			JOINT rankle
			{
				OFFSET 0.019056 -0.420046 -0.034562
				CHANNELS 3 Zrotation Yrotation Xrotation
				JOINT rtoe
				{
					OFFSET -0.034840 -0.062106 0.130323
					CHANNELS 3 Zrotation Yrotation Xrotation
					End Site
					{
						OFFSET 0.000000 0.000000 0.000000
					}
				}
			}
		}
	}
	JOINT lowerback
	{
		OFFSET 0.004439 0.124404 -0.038385
		CHANNELS 3 Zrotation Yrotation Xrotation
		JOINT upperback
		{
			OFFSET 0.004488 0.137956 0.026820
			CHANNELS 3 Zrotation Yrotation Xrotation
			JOINT chest
			{
				OFFSET -0.002265 0.056032 0.002855
				CHANNELS 3 Zrotation Yrotation Xrotation
				JOINT lowerneck
				{
					OFFSET -0.013390 0.211636 -0.033468
					CHANNELS 3 Zrotation Yrotation Xrotation
					JOINT upperneck
					{
						OFFSET 0.010113 0.088937 0.050410
						CHANNELS 3 Zrotation Yrotation Xrotation
						End Site
						{
							OFFSET 0.000000 0.000000 0.000000
						}
					}
				}
				JOINT lclavicle
				{
					OFFSET 0.071702 0.114000 -0.018898
					CHANNELS 3 Zrotation Yrotation Xrotation
					JOINT lshoulder
					{
						OFFSET 0.122921 0.045205 -0.019046
						CHANNELS 3 Zrotation Yrotation Xrotation
						JOINT lelbow
						{
							OFFSET 0.255332 -0.015649 -0.022946
							CHANNELS 3 Zrotation Yrotation Xrotation
							JOINT lwrist
							{
								OFFSET 0.265709 0.012698 -0.007375
								CHANNELS 3 Zrotation Yrotation Xrotation
								End Site
								{
									OFFSET 0.000000 0.000000 0.000000
								}
							}
						}
					}
				}
				JOINT rclavicle
				{
					OFFSET -0.082954 0.112472 -0.023707
					CHANNELS 3 Zrotation Yrotation Xrotation
					JOINT rshoulder
					{
						OFFSET -0.113228 0.046853 -0.008472
						CHANNELS 3 Zrotation Yrotation Xrotation
						JOINT relbow
						{
							OFFSET -0.260127 -0.014369 -0.031269
							CHANNELS 3 Zrotation Yrotation Xrotation
							JOINT rwrist
							{
								OFFSET -0.269108 0.006794 -0.006027
								CHANNELS 3 Zrotation Yrotation Xrotation
								End Site
								{
									OFFSET 0.000000 0.000000 0.000000
								}
							}
						}
					}
				}
			}
		}
	}
}
MOTION
Frames: 7
Frame Time: 0.033333
-0.067520 0.213856 0.900028 93.093297 2.477250 86.500892 7.577068 -2.154643 -22.076352 -4.949492 -0.948462 51.116272 1.859152 6.435595 -34.250499 0.000000 -0.000000 0.000000 -7.325547 -5.265529 -15.841266 1.619771 -5.508813 43.139551 1.315385 0.577995 -32.299373 0.000000 -0.000000 0.000000 0.293078 1.748754 12.989248 3.085866 -6.168771 -0.084630 1.146706 -1.688878 -5.309085 -1.014930 0.028883 9.229167 1.112972 -7.237045 -2.214023 -2.308981 -29.202397 -5.527797 -19.857702 -31.429932 -11.445779 60.295309 -54.006224 -33.343414 -44.691494 -19.888851 -5.943111 -0.383044 30.633639 -6.457901 21.068070 37.416475 -12.186118 -41.644165 46.827276 -17.219081 49.018049 12.311123 -17.408608 
-0.067756 0.214227 0.900267 93.085223 2.488329 86.482653 7.475320 -2.342529 -22.009619 -4.852975 -1.002636 51.033267 1.863181 6.616914 -34.260348 0.000000 -0.000000 0.000000 -7.287260 -5.157035 -15.796153 1.561153 -5.469875 43.037089 1.353561 0.498377 -32.256469 0.000000 -0.000000 0.000000 0.290979 1.736395 12.998939 3.092909 -6.157113 -0.142939 1.157106 -1.699075 -5.260800 -1.003129 0.079762 9.163316 1.090601 -7.172008 -2.349680 -2.298812 -29.115644 -5.554654 -19.948643 -31.489656 -11.346399 60.281749 -54.020624 -33.285430 -44.515691 -19.982353 -6.092614 -0.345233 30.560253 -6.461523 21.155642 37.465762 -12.042547 -41.655192 46.788538 -17.187720 48.852556 12.325656 -17.373753 
-0.067921 0.214504 0.900438 93.076017 2.493252 86.462128 7.346391 -2.553473 -21.932979 -4.724041 -1.064544 50.948858 1.895600 6.838916 -34.284797 0.000000 -0.000000 0.000000 -7.252585 -5.066698 -15.761364 1.517749 -5.414788 42.967118 1.398920 0.403479 -32.191352 0.000000 -0.000000 0.000000 0.277646 1.743758 12.997130 3.086267 -6.146383 -0.176289 1.170143 -1.699144 -5.193843 -0.981730 0.125765 9.028674 1.089054 -7.105221 -2.531930 -2.281213 -29.074471 -5.601415 -19.964383 -31.514742 -11.269145 60.284784 -54.045630 -33.314830 -44.454281 -20.011574 -6.088572 -0.326964 30.504157 -6.539351 21.227892 37.444045 -11.906708 -41.714268 46.745313 -17.254666 48.842690 12.313864 -17.264452 
-0.068055 0.214652 0.900605 93.027199 2.503606 86.437095 7.249612 -2.689991 -21.850615 -4.586674 -1.088109 50.875589 1.904604 7.017892 -34.318656 0.000000 -0.000000 0.000000 -7.211990 -4.988226 -15.722771 1.459531 -5.377714 42.895392 1.423098 0.368283 -32.158797 0.000000 -0.000000 0.000000 0.268133 1.762511 12.976115 3.073211 -6.122366 -0.170546 1.175664 -1.691526 -5.130297 -0.965477 0.203902 8.936230 1.092862 -7.042614 -2.819110 -2.242059 -29.002557 -5.686897 -20.004354 -31.553638 -11.193247 60.285139 -54.059116 -33.339192 -44.487021 -19.982921 -6.058543 -0.319211 30.422762 -6.624637 21.298361 37.483408 -11.776230 -41.764086 46.680674 -17.308486 48.831095 12.216643 -17.204244 
-0.068120 0.214667 0.900713 92.977167 2.520111 86.407655 7.211301 -2.721617 -21.789570 -4.517955 -1.110083 50.839510 1.902314 7.100824 -34.344275 0.000000 -0.000000 0.000000 -7.189045 -4.951554 -15.682910 1.444460 -5.359194 42.847671 1.443850 0.384655 -32.131745 0.000000 -0.000000 0.000000 0.268238 1.774846 12.977190 3.050437 -6.100767 -0.177478 1.179155 -1.687169 -5.100497 -0.964057 0.259759 8.861827 1.089210 -6.964592 -3.102405 -2.227063 -28.954834 -5.729682 -19.986472 -31.533940 -11.182142 60.236147 -54.071886 -33.298178 -44.441681 -20.039185 -6.057959 -0.334368 30.376278 -6.678433 21.357384 37.497831 -11.708420 -41.726462 46.647361 -17.292375 48.705537 12.257987 -17.175162 
-0.068139 0.214622 0.900741 92.941809 2.529219 86.385863 7.228597 -2.704802 -21.773231 -4.549865 -1.112604 50.856556 1.886458 7.128421 -34.315409 0.000000 -0.000000 0.000000 -7.193506 -4.954581 -15.655895 1.464247 -5.368461 42.821213 1.439495 0.425512 -32.110771 0.000000 -0.000000 0.000000 0.251770 1.785033 12.937585 3.031144 -6.104165 -0.140464 1.174267 -1.686518 -5.104856 -0.990039 0.341801 8.754173 1.101718 -6.918478 -3.295264 -2.222484 -28.974093 -5.763824 -19.932479 -31.420199 -11.175946 60.201240 -54.060115 -33.342211 -44.380962 -20.033990 -6.032149 -0.313980 30.407688 -6.687357 21.378326 37.474735 -11.686545 -41.674009 46.619370 -17.327595 48.653176 12.292479 -17.190272 
-0.068085 0.214482 0.900790 92.939778 2.546243 86.326382 7.272902 -2.628526 -21.691227 -4.545409 -1.080114 50.826730 1.883652 7.018272 -34.324858 0.000000 -0.000000 0.000000 -7.193066 -4.981676 -15.569286 1.475344 -5.393475 42.794907 1.436312 0.480945 -32.115771 0.000000 -0.000000 0.000000 0.254756 1.771681 12.960887 2.993923 -6.113844 -0.151791 1.172883 -1.681201 -5.077358 -1.009111 0.443345 8.617484 1.117477 -6.856765 -3.506437 -2.200928 -28.951801 -5.842225 -19.931513 -31.378846 -11.184160 60.120635 -54.054976 -33.292966 -44.367305 -19.997030 -5.958017 -0.321420 30.394094 -6.730328 21.445909 37.473341 -11.649560 -41.600051 46.641657 -17.345536 48.506960 12.339657 -17.161027 
